HIERARCHY
ROOT Hips
{
	OFFSET 0.000000 0.000000 0.000000 
	CHANNELS 6 Xposition Yposition Zposition Zrotation Yrotation Xrotation
	JOINT LeftUpLeg
	{
		OFFSET 1.363060 -1.794630 0.839290 
		CHANNELS 3 Zrotation Yrotation Xrotation
		JOINT LeftLeg
		{
			OFFSET 2.448110 -6.726130 0.000000 
			CHANNELS 3 Zrotation Yrotation Xrotation
			JOINT LeftFoot
			{
				OFFSET 2.562200 -7.039590 0.000000 
				CHANNELS 3 Zrotation Yrotation Xrotation
				JOINT LeftToeBase
				{
					OFFSET 0.157640 -0.433110 2.322550 
					CHANNELS 3 Zrotation Yrotation Xrotation
					End Site
					{
						OFFSET 0.000000 0.000000 0.000000 
					}
				}
			}
		}
	}
	JOINT RightUpLeg
	{
		OFFSET -1.305520 -1.794630 0.839290 
		CHANNELS 3 Zrotation Yrotation Xrotation
		JOINT RightLeg
		{
			OFFSET -2.542530 -6.985550 0.000000 
			CHANNELS 3 Zrotation Yrotation Xrotation
			JOINT RightFoot
			{
				OFFSET -2.568260 -7.056230 0.000000 
				CHANNELS 3 Zrotation Yrotation Xrotation
				JOINT RightToeBase
				{
					OFFSET -0.164730 -0.452590 2.363150 
					CHANNELS 3 Zrotation Yrotation Xrotation
					End Site
					{
						OFFSET 0.000000 0.000000 0.000000 
					}
				}
			}
		}
	}
	JOINT Spine
	{
		OFFSET 0.028270 2.035590 -0.193380 
		CHANNELS 3 Zrotation Yrotation Xrotation
		JOINT Spine1
		{
			OFFSET 0.056720 2.048850 -0.042750 
			CHANNELS 3 Zrotation Yrotation Xrotation
			JOINT Neck1
			{
				OFFSET -0.054170 1.746240 0.172020 
				CHANNELS 3 Zrotation Yrotation Xrotation
				JOINT Head
				{
					OFFSET 0.104070 1.761360 -0.123970 
					CHANNELS 3 Zrotation Yrotation Xrotation
					End Site
					{
						OFFSET 0.000000 0.000000 0.000000 
					}
				}
			}
			JOINT LeftArm
			{
				OFFSET 3.362410 1.200890 -0.311210 
				CHANNELS 3 Zrotation Yrotation Xrotation
				JOINT LeftForeArm
				{
					OFFSET 4.983000 -0.000000 -0.000000 
					CHANNELS 3 Zrotation Yrotation Xrotation
					JOINT LeftHand
					{
						OFFSET 3.483560 -0.000000 -0.000000 
						CHANNELS 3 Zrotation Yrotation Xrotation
						JOINT LeftHandIndex1
						{
							OFFSET 0.715260 -0.000000 -0.000000 
							CHANNELS 3 Zrotation Yrotation Xrotation
							End Site
							{
								OFFSET 0.000000 0.000000 0.000000 
							}
						}
					}
				}
			}
			JOINT RightArm
			{
				OFFSET -3.136600 1.374050 -0.404650 
				CHANNELS 3 Zrotation Yrotation Xrotation
				JOINT RightForeArm
				{
					OFFSET -5.241900 -0.000000 -0.000000 
					CHANNELS 3 Zrotation Yrotation Xrotation
					JOINT RightHand
					{
						OFFSET -3.444170 -0.000000 -0.000000 
						CHANNELS 3 Zrotation Yrotation Xrotation
						JOINT RightHandIndex1
						{
							OFFSET -0.622530 -0.000000 -0.000000 
							CHANNELS 3 Zrotation Yrotation Xrotation
							End Site
							{
								OFFSET 0.000000 0.000000 0.000000 
							}
						}
					}
				}
			}
		}
	}
}
MOTION
Frames: 18
Frame Time: 0.041667
-0.934242 17.969716 6.060467 -2.644523 2.856906 -5.871699 -10.543710 -3.892044 21.279357 -1.013510 -8.480595 -19.979496 -3.635251 18.792415 12.552116 0.506600 -4.562800 -12.665600 14.213568 -9.351995 17.180773 1.042458 6.366373 -12.717609 3.409396 -15.062509 -7.078645 -0.100000 2.039700 -5.615300 8.635242 0.814964 25.394812 -3.679296 1.694313 -10.514054 12.497680 -19.796805 19.781818 2.692400 -8.903100 10.176500 -48.616172 7.320789 72.238397 146.902418 -38.292775 -108.188945 -0.958051 0.161218 -33.614078 -7.125000 0.000000 0.000000 51.734804 -8.698217 60.462477 -111.207163 50.994640 -76.922544 0.836746 0.310143 -15.416522 7.125000 0.000000 0.000000 
-0.941476 17.986795 5.991044 -2.592845 3.315239 -5.870417 -10.509933 -3.912097 20.888700 -0.992334 -8.535013 -20.160519 -3.509365 18.682138 13.306120 0.498400 -4.525900 -12.561200 14.217295 -9.609331 16.905600 1.040204 6.420928 -12.854820 3.526699 -15.495395 -6.956579 -0.091400 1.950200 -5.368000 8.699468 0.936773 26.322049 -3.718508 1.795265 -10.751533 13.439555 -20.979808 16.754565 2.956200 -9.568300 9.466400 -48.939239 6.228137 72.045796 147.140787 -38.090947 -108.330600 -0.966830 0.164114 -33.066231 -7.125000 0.000000 0.000000 51.457933 -6.069671 58.212366 -106.072000 52.079022 -71.454340 1.000366 0.133703 -13.110146 7.125000 0.000000 0.000000 
-0.949111 18.004980 5.929558 -2.561879 3.807652 -5.676990 -10.474390 -4.068999 20.332427 -0.978954 -8.565673 -20.301125 -3.404533 18.636130 13.988969 0.539900 -4.707800 -13.077100 14.287559 -9.854153 16.436744 1.043540 6.446937 -12.921302 3.634568 -15.888286 -6.851785 -0.087300 1.905700 -5.245100 8.697677 1.083795 27.068119 -3.831325 1.886604 -10.769866 14.932288 -22.222213 13.768379 3.398000 -10.261200 8.869400 -49.189547 4.981534 71.801402 147.246480 -37.997275 -108.387885 -0.969025 0.172563 -32.600517 -7.125000 0.000000 0.000000 50.878563 -3.327158 56.067469 -101.141429 53.017744 -66.173012 1.131884 0.041480 -12.547586 7.125000 0.000000 0.000000 
-0.957148 18.025274 5.881836 -2.554789 4.325907 -5.243541 -10.437579 -4.355250 19.571597 -0.977270 -8.565722 -20.376948 -3.320464 18.639414 14.594875 0.619000 -5.034900 -14.008000 14.421042 -10.089676 15.714408 1.054211 6.425128 -12.866219 3.710762 -16.157249 -6.817429 -0.085700 1.888500 -5.197500 8.783987 1.247564 27.538666 -4.016307 1.976045 -10.619125 16.485137 -23.433341 10.733569 3.878700 -10.993500 8.254200 -49.340569 3.634329 71.515687 147.179656 -38.047779 -108.334878 -0.963378 0.181266 -32.372725 -7.125000 0.000000 0.000000 50.134492 -0.617104 53.704083 -95.930170 53.900750 -60.665385 1.245510 -0.053041 -12.366722 7.125000 0.000000 0.000000 
-0.967497 18.047879 5.845869 -2.538682 4.790688 -4.648915 -10.386089 -4.637679 18.674055 -0.980084 -8.546691 -20.395293 -3.238518 18.570649 15.065029 0.630800 -5.082000 -14.142500 14.586597 -10.203597 14.874486 1.067788 6.387004 -12.775643 3.758466 -16.325112 -6.893982 -0.071700 1.727400 -4.753000 8.857463 1.468784 27.750372 -4.249937 2.076219 -10.471641 17.683098 -24.579315 7.941094 4.244300 -11.736300 7.640100 -49.372470 2.268719 71.203653 146.904491 -38.279035 -108.144417 -0.949633 0.184854 -32.311604 -7.125000 0.000000 0.000000 49.383951 2.011684 51.660164 -90.257552 54.719189 -54.957151 1.367492 -0.169205 -13.071646 7.125000 0.000000 0.000000 
-0.977945 18.068475 5.816734 -2.501032 5.277938 -4.027228 -10.360581 -5.030466 17.802627 -0.990399 -8.507895 -20.359878 -3.172080 18.488136 15.401568 0.607200 -4.987800 -13.873700 14.717990 -10.293804 14.042132 1.079748 6.348961 -12.686853 3.787174 -16.427106 -7.035401 -0.052400 1.477200 -4.062800 9.011708 1.658751 27.821406 -4.464594 2.161234 -10.333333 18.498381 -25.649016 5.575910 4.482300 -12.447200 7.113200 -49.423966 0.879107 70.774749 146.470329 -38.646341 -107.847318 -0.925757 0.192544 -32.446861 -7.125000 0.000000 0.000000 48.479372 4.858994 48.466857 -83.367507 55.385855 -48.309542 1.425083 -0.335367 -8.878174 7.125000 0.000000 0.000000 
-0.986786 18.084449 5.792521 -2.480141 5.876452 -3.514686 -10.335967 -5.542810 17.066678 -1.006369 -8.450295 -20.281200 -3.119404 18.425828 15.669271 0.626700 -5.065600 -14.095800 14.834550 -10.499680 13.373883 1.086716 6.334641 -12.651945 3.832549 -16.596375 -7.179446 -0.044600 1.362900 -3.748000 9.215303 1.798664 27.784955 -4.732193 2.209980 -10.247993 19.085901 -26.636504 3.485620 4.647200 -13.117000 6.638500 -49.597429 -0.576955 70.342025 145.916234 -39.111199 -107.462008 -0.898930 0.203896 -32.559014 -7.125000 0.000000 0.000000 47.604473 7.612936 45.476846 -76.187076 55.557562 -41.871563 1.428827 -0.481362 -6.396017 7.125000 0.000000 0.000000 
-0.998239 18.097711 5.772327 -2.452180 6.484845 -3.147132 -10.316593 -5.981882 16.474366 -1.021072 -8.388854 -20.181543 -3.047442 18.299218 15.967558 0.676800 -5.260300 -14.652600 14.941833 -10.647817 12.961706 1.089933 6.355668 -12.708168 3.913250 -16.915239 -7.417479 -0.039100 1.276800 -3.510700 9.434973 1.934941 27.612931 -5.039217 2.240544 -10.283375 19.854432 -27.473469 1.321610 4.884300 -13.734500 6.145900 -49.915378 -1.907971 70.077691 145.270268 -39.646726 -106.998395 -0.889201 0.214375 -32.329508 -7.125000 0.000000 0.000000 46.971360 10.353453 42.540405 -68.878760 55.037266 -35.701631 1.398673 -0.602725 -5.574097 7.125000 0.000000 0.000000 
-1.014314 18.108662 5.755951 -2.375741 7.018150 -2.922509 -10.355522 -6.287777 16.059669 -1.034771 -8.332654 -20.072100 -2.957218 18.110476 16.298800 0.724000 -5.436900 -15.159100 14.979636 -10.651003 12.792386 1.090495 6.395946 -12.821446 4.014756 -17.325769 -7.730299 -0.034800 1.204400 -3.311300 9.778626 2.047820 27.370004 -5.277040 2.270964 -10.361608 20.961099 -28.099962 -0.879256 5.239100 -14.266100 5.697100 -50.373841 -3.004418 69.858916 144.620921 -40.173752 -106.523727 -0.888889 0.229003 -31.968298 -7.125000 0.000000 0.000000 46.530937 13.267646 39.498268 -61.681152 53.713811 -29.878263 1.368753 -0.711210 -4.796226 7.125000 0.000000 0.000000 
-1.031695 18.114489 5.744297 -2.298598 7.558437 -2.934126 -10.420902 -6.518605 15.916577 -1.044859 -8.283828 -19.962774 -2.867951 17.884678 16.561257 0.746800 -5.520100 -15.398100 14.955956 -10.748179 12.901794 1.086333 6.451184 -12.959790 4.119334 -17.749445 -8.022073 -0.019500 0.901700 -2.478200 10.188876 2.080477 27.229637 -5.462432 2.277935 -10.391152 22.032886 -28.546494 -2.795958 5.564400 -14.684500 5.354700 -50.949921 -4.005601 69.462211 144.102358 -40.582191 -106.144711 -0.871241 0.250077 -32.209775 -7.125000 0.000000 0.000000 46.280135 16.279378 36.138790 -55.153213 51.786981 -24.993497 1.319295 -0.886135 -2.722955 7.125000 0.000000 0.000000 
-1.048774 18.115292 5.737666 -2.322510 8.105728 -3.204331 -10.417311 -6.682466 16.042751 -1.045876 -8.246985 -19.872766 -2.770801 17.602891 16.782147 0.759100 -5.564300 -15.525300 14.964584 -10.983430 13.296919 1.077379 6.522934 -13.119241 4.207163 -18.120415 -8.332494 -0.001400 0.244400 -0.671500 10.722280 2.017461 27.152619 -5.669192 2.246428 -10.395309 22.772141 -28.857563 -4.320305 5.780200 -14.995400 5.078600 -51.594153 -4.825024 69.052692 143.660120 -40.921216 -105.820448 -0.843666 0.267852 -32.728331 -7.125000 0.000000 0.000000 46.211755 19.343391 32.763816 -49.564903 49.462614 -20.917270 1.279614 -1.029636 -0.241494 7.125000 0.000000 0.000000 
-1.064949 18.110269 5.733145 -2.376821 8.525804 -3.640176 -10.400409 -6.744827 16.370781 -1.039266 -8.222693 -19.808022 -2.673763 17.307914 16.971752 0.793200 -5.685100 -15.873300 14.958497 -11.224446 13.875914 1.066920 6.594908 -13.265746 4.263610 -18.379118 -8.650983 -0.001300 -0.234400 0.644100 11.171625 1.979594 27.056026 -5.955959 2.205238 -10.474355 23.315377 -29.085017 -5.519830 5.929100 -15.233400 4.847400 -52.117774 -5.407820 68.880380 143.191545 -41.275487 -105.470992 -0.824089 0.272272 -32.642288 -7.125000 0.000000 0.000000 46.264815 22.435500 29.819646 -44.708757 46.912998 -17.556149 1.230216 -1.156554 0.547278 7.125000 0.000000 0.000000 
-1.077508 18.100021 5.731236 -2.323191 9.037518 -4.111418 -10.502637 -6.848055 16.789288 -1.029603 -8.207847 -19.763552 -2.560075 16.951226 17.163518 0.839800 -5.845800 -16.337500 14.805036 -11.646550 14.454218 1.053741 6.655235 -13.363234 4.282400 -18.492527 -8.971655 -0.006200 -0.506900 1.393000 11.487017 1.908371 26.995424 -6.206184 2.142165 -10.513736 23.695599 -29.281426 -6.535322 6.010900 -15.429600 4.649200 -52.514267 -5.986034 68.831118 142.711733 -41.631924 -105.107728 -0.815763 0.272587 -32.150408 -7.125000 0.000000 0.000000 46.481490 25.626803 25.441215 -40.377390 44.095337 -14.594393 1.256719 -1.243880 4.941116 7.125000 0.000000 0.000000 
-1.090066 18.092587 5.736260 -2.300256 9.732522 -4.435305 -10.583012 -7.018155 17.056709 -1.019419 -8.197943 -19.727395 -2.428505 16.523975 17.380474 0.835300 -5.830300 -16.292900 14.683426 -12.172897 14.859587 1.040860 6.701316 -13.432569 4.301412 -18.611236 -9.314253 -0.019600 -0.904500 2.486100 12.222235 1.710143 26.800371 -6.326433 2.071741 -10.340264 23.875553 -29.420992 -7.463399 6.048900 -15.583000 4.459300 -53.053190 -6.627151 68.773750 142.183003 -42.015683 -104.701704 -0.820790 0.280092 -31.850015 -7.125000 0.000000 0.000000 47.062712 28.631116 20.528469 -36.932798 41.524742 -12.419202 1.275841 -1.321640 8.457201 7.125000 0.000000 0.000000 
-1.104935 18.089472 5.746708 -2.383676 10.205333 -4.620472 -10.541594 -7.048624 17.158724 -1.013067 -8.189015 -19.682783 -2.341548 16.196672 17.484303 0.779300 -5.636200 -15.732500 14.712351 -12.434277 15.138845 1.034982 6.731790 -13.487960 4.332176 -18.780869 -9.673633 -0.035300 -1.212700 3.334200 13.166000 1.571671 26.459304 -6.388782 2.036179 -10.175453 24.048025 -29.318495 -8.603417 6.160800 -15.651700 4.167300 -53.752122 -7.143916 68.691294 141.629518 -42.417131 -104.278495 -0.825390 0.291809 -32.034212 -7.125000 0.000000 0.000000 45.063754 31.285996 18.898830 -33.733460 38.875319 -10.518063 1.272631 -1.375272 7.520029 7.125000 0.000000 0.000000 
-1.118498 18.085052 5.759066 -2.450629 10.483903 -4.820177 -10.513756 -6.913759 17.294895 -1.004438 -8.183145 -19.636995 -2.251250 15.860588 17.602065 0.775100 -5.621300 -15.689600 14.723265 -12.588785 15.448389 1.030876 6.751011 -13.516750 4.343678 -18.880896 -10.030118 -0.024800 -1.017500 2.796800 13.992702 1.542798 25.936758 -6.574870 2.014570 -10.148190 24.270622 -29.066680 -9.747163 6.316300 -15.660600 3.831500 -54.423541 -7.436777 68.611158 141.081337 -42.804428 -103.859032 -0.814555 0.305448 -32.521578 -7.125000 0.000000 0.000000 43.965441 33.792479 16.150916 -30.902718 36.319237 -8.965039 1.254627 -1.446056 9.095915 7.125000 0.000000 0.000000 
-1.130152 18.077818 5.772629 -2.484402 10.730671 -5.098546 -10.525320 -6.700694 17.532699 -0.989518 -8.186928 -19.607134 -2.131379 15.437129 17.785150 0.849900 -5.879800 -16.436200 14.672087 -12.799223 15.846036 1.024323 6.771723 -13.545895 4.350969 -18.951114 -10.269753 -0.012400 -0.719600 1.977600 14.709819 1.543247 25.385911 -6.795527 1.990890 -10.192322 24.276552 -29.220855 -9.911795 6.287300 -15.746200 3.813000 -55.070742 -7.572353 68.536123 140.531532 -43.187207 -103.434196 -0.796191 0.321445 -32.993478 -7.125000 0.000000 0.000000 43.154406 36.033810 13.075028 -28.542299 34.062665 -7.780362 1.221346 -1.513610 11.315113 7.125000 0.000000 0.000000 
-1.140601 18.067470 5.786795 -2.514514 10.878630 -5.379224 -10.523163 -6.494978 17.810006 -0.975265 -8.192776 -19.585451 -2.052297 15.100620 17.818539 0.887300 -6.004300 -16.796900 14.629673 -12.891897 16.300793 1.017236 6.803262 -13.607401 4.356629 -19.020085 -10.512396 -0.022700 -0.972800 2.673900 15.292633 1.587084 24.856577 -7.036765 1.978648 -10.226839 24.179956 -29.701247 -9.385544 6.129800 -15.905100 4.033200 -55.608266 -7.630920 68.458003 140.018951 -43.538373 -103.034427 -0.779815 0.336766 -33.430737 -7.125000 0.000000 0.000000 42.317780 37.901530 10.283763 -26.775224 32.300955 -6.952067 1.185832 -1.562016 13.112247 7.125000 0.000000 0.000000 
